<svg width="200" height="280" viewBox="0 0 200 280" xmlns="http://www.w3.org/2000/svg">
  <!-- Blue shield background -->
  <path d="M100 20 L160 50 L160 130 Q160 160 100 200 Q40 160 40 130 L40 50 Z" fill="#4F46E5" stroke="#3730A3" stroke-width="2"/>
  
  <!-- Elderly character -->
  <!-- Head -->
  <circle cx="100" cy="80" r="20" fill="#F4A460" stroke="#E6A86B" stroke-width="1"/>
  
  <!-- Hair -->
  <path d="M85 65 Q100 55 115 65 Q118 68 115 72 Q100 62 85 72 Q82 68 85 65" fill="#D3D3D3"/>
  
  <!-- Glasses -->
  <circle cx="92" cy="78" r="8" fill="none" stroke="#333" stroke-width="2"/>
  <circle cx="108" cy="78" r="8" fill="none" stroke="#333" stroke-width="2"/>
  <line x1="100" y1="78" x2="100" y2="78" stroke="#333" stroke-width="2"/>
  
  <!-- Eyes -->
  <circle cx="92" cy="78" r="2" fill="#333"/>
  <circle cx="108" cy="78" r="2" fill="#333"/>
  
  <!-- Mouth -->
  <path d="M95 88 Q100 92 105 88" fill="none" stroke="#333" stroke-width="2"/>
  
  <!-- Body -->
  <ellipse cx="100" cy="130" rx="25" ry="35" fill="#654321"/>
  
  <!-- Arms -->
  <ellipse cx="75" cy="120" rx="8" ry="25" fill="#F4A460"/>
  <ellipse cx="125" cy="120" rx="8" ry="25" fill="#F4A460"/>
  
  <!-- Waving hand -->
  <circle cx="130" cy="105" r="5" fill="#F4A460"/>
  
  <!-- Legs -->
  <ellipse cx="90" cy="170" rx="8" ry="25" fill="#333"/>
  <ellipse cx="110" cy="170" rx="8" ry="25" fill="#333"/>
  
  <!-- Text below -->
  <text x="100" y="220" font-family="Arial, sans-serif" font-size="18" font-weight="bold" fill="#000000" text-anchor="middle">ElderShield</text>
</svg>